<svg width="23" height="24" viewBox="0 0 23 24" fill="none" xmlns="http://www.w3.org/2000/svg">
<path d="M21.5489 8.78298H0.817021C0.357447 8.78298 0 9.14043 0 9.6V21.6C0 22.9277 1.07234 24 2.4 24H19.966C21.2936 24 22.366 22.9277 22.366 21.6V9.6C22.366 9.14043 22.0085 8.78298 21.5489 8.78298ZM7.2 19.966C7.2 20.4255 6.84255 20.783 6.38298 20.783H4.8C4.34043 20.783 3.98298 20.4255 3.98298 19.966V18.383C3.98298 17.9234 4.34043 17.566 4.8 17.566H6.38298C6.84255 17.566 7.2 17.9234 7.2 18.383V19.966ZM12.766 19.966C12.766 20.4255 12.4085 20.783 11.9489 20.783H10.366C9.90638 20.783 9.54894 20.4255 9.54894 19.966V18.383C9.54894 17.9234 9.90638 17.566 10.366 17.566H11.9489C12.4085 17.566 12.766 17.9234 12.766 18.383V19.966ZM12.766 14.4C12.766 14.8596 12.4085 15.217 11.9489 15.217H10.366C9.90638 15.217 9.54894 14.8596 9.54894 14.4V12.817C9.54894 12.3574 9.90638 12 10.366 12H11.9489C12.4085 12 12.766 12.3574 12.766 12.817V14.4ZM18.383 14.4C18.383 14.8596 18.0255 15.217 17.566 15.217H15.983C15.5234 15.217 15.166 14.8596 15.166 14.4V12.817C15.166 12.3574 15.5234 12 15.983 12H17.566C18.0255 12 18.383 12.3574 18.383 12.817V14.4ZM19.966 2.4H17.9745V1.58298C17.9745 0.714894 17.2596 0 16.3915 0C15.5234 0 14.8085 0.714894 14.8085 1.58298V2.4H7.60851V1.58298C7.60851 0.714894 6.89362 0 6.02553 0C5.15745 0 4.44255 0.714894 4.44255 1.58298V2.4H2.4C1.07234 2.4 0 3.47234 0 4.8V5.61702C0 6.0766 0.357447 6.43404 0.817021 6.43404H21.6C22.0596 6.43404 22.417 6.0766 22.417 5.61702V4.8C22.366 3.47234 21.2936 2.4 19.966 2.4Z" fill="#F8B6BE"/>
</svg>
